<?xml version="1.0" encoding="utf-8"?>
<!-- Generator: Adobe Illustrator 24.2.3, SVG Export Plug-In . SVG Version: 6.00 Build 0)  -->
<svg version="1.1" id="Calque_1" xmlns="http://www.w3.org/2000/svg" xmlns:xlink="http://www.w3.org/1999/xlink" x="0px" y="0px"
	 width="229.7px" height="41.2px" viewBox="0 0 229.7 41.2" style="enable-background:new 0 0 229.7 41.2;" xml:space="preserve">
<style type="text/css">
	.st0{fill:#FFFFFF;}
	.st1{fill:#48AC35;}
</style>
<g id="Groupe_200" transform="translate(-629 -2737)">
	<g id="Groupe_92" transform="translate(637.251 2744.332)">
		<g id="Groupe_90" transform="translate(0 0)">
			<path id="Tracé_49" class="st0" d="M0,0h5.2C6.9-0.1,8.5,0.2,10,0.7c1.1,0.5,2,1.3,2.7,2.3c0.7,1,1,2.2,1,3.4
				c0,1.1-0.3,2.2-0.9,3.2c-0.6,1-1.5,1.8-2.5,2.3c1.1,0.3,2.2,0.9,3.2,1.6c0.7,0.6,1.3,1.4,1.7,2.3c0.4,0.9,0.6,1.9,0.6,2.9
				c0,2-0.8,4-2.3,5.4c-1.7,1.5-4,2.3-6.2,2.2H0V0z M2.6,2.6V11h1.5c1.4,0.1,2.7-0.1,4-0.5c0.8-0.3,1.5-0.9,2.1-1.6
				C10.7,8.2,11,7.3,11,6.4c0.1-1.1-0.4-2.1-1.3-2.8c-1.2-0.8-2.6-1.1-4-1L2.6,2.6z M2.6,13.6v10.1h3.3c1.4,0.1,2.9-0.1,4.2-0.6
				c0.9-0.4,1.6-1,2.2-1.8c0.5-0.8,0.8-1.7,0.8-2.6c0-1.1-0.4-2.2-1.2-3.1c-0.8-0.9-1.9-1.5-3.2-1.8c-1.6-0.3-3.1-0.4-4.7-0.3
				L2.6,13.6z"/>
		</g>
		<g id="Groupe_91" transform="translate(21.453 6.35)">
			<path id="Tracé_50" class="st0" d="M17.5,13.5l2.1,1.1c-0.6,1.2-1.4,2.3-2.4,3.3c-0.9,0.8-1.9,1.5-3.1,1.9
				c-1.2,0.5-2.6,0.7-3.9,0.7c-2.8,0.2-5.6-1-7.5-3.1C1,15.4,0,12.9,0,10.3c0-2.4,0.8-4.7,2.3-6.6C4.1,1.3,7.1-0.1,10.1,0
				c3.1-0.1,6.1,1.3,8,3.8c1.5,1.9,2.2,4.3,2.2,6.7H2.6c0,2.1,0.8,4.1,2.2,5.6c1.4,1.4,3.3,2.2,5.2,2.2c1,0,2-0.2,2.9-0.5
				c0.9-0.3,1.7-0.8,2.4-1.4C16.2,15.5,16.9,14.5,17.5,13.5z M17.5,8.3C17.2,7.1,16.7,6,16,5.1c-0.7-0.8-1.6-1.5-2.6-1.9
				c-1-0.5-2.2-0.7-3.3-0.7c-1.8,0-3.6,0.6-5,1.8C4,5.3,3.2,6.7,2.8,8.3L17.5,8.3z"/>
		</g>
	</g>
	<path id="Tracé_51" class="st1" d="M857.8,2738.1v39H629.9v-39H857.8 M858.7,2737H629v41.2h229.7V2737z"/>
	<g id="Groupe_93" transform="translate(685.269 2744.071)">
		<path id="Tracé_52" class="st1" d="M3.4,3.4C5.3,1.3,8,0.2,10.8,0.3c4,0,7,1.4,8.9,4.2c1,1.4,1.5,3,1.7,4.7h-5.1
			c-0.2-1-0.6-1.9-1.2-2.7c-1-1.1-2.5-1.8-4-1.6c-1.7,0-3.4,0.8-4.3,2.3c-1.2,2-1.7,4.3-1.6,6.6c0,2.8,0.5,5,1.6,6.4
			c1,1.3,2.5,2.1,4.2,2.1c1.5,0.1,3-0.6,4-1.8c0.6-0.9,1-1.9,1.3-2.9h5c-0.3,2.5-1.5,4.9-3.3,6.7c-1.8,1.7-4.3,2.7-6.9,2.6
			C8,26.9,5,25.6,3,23.2c-2-2.3-3-5.6-3-9.6C0,9.2,1.1,5.8,3.4,3.4z"/>
		<path id="Tracé_53" class="st1" d="M44,23.8c-1.8,2-4.5,2.9-7.9,2.9s-6.1-1-7.9-2.9c-2.5-2.4-3.7-5.9-3.7-10.4
			c0-4.6,1.2-8.1,3.7-10.4C30,1,32.6,0,36.1,0s6.1,1,7.9,2.9c2.4,2.3,3.7,5.8,3.7,10.4C47.7,17.9,46.5,21.4,44,23.8z M40.9,19.9
			c1.3-1.9,1.9-4.3,1.8-6.6c0.1-2.3-0.5-4.6-1.8-6.6c-1.1-1.5-2.9-2.4-4.8-2.3c-1.9-0.1-3.7,0.8-4.8,2.3c-1.3,1.9-1.9,4.2-1.8,6.6
			c-0.1,2.3,0.5,4.6,1.8,6.6c1.1,1.5,2.9,2.4,4.8,2.3C38,22.3,39.8,21.5,40.9,19.9z"/>
		<path id="Tracé_54" class="st1" d="M51.5,0.8h5.3l9.6,17.6V0.8h4.7V26h-5.1L56.2,8.1V26h-4.7V0.8z"/>
		<path id="Tracé_55" class="st1" d="M75.8,0.8h5.3l9.6,17.6V0.8h4.7V26h-5.1L80.5,8.1V26h-4.7V0.8z"/>
		<path id="Tracé_56" class="st1" d="M118.1,5.2h-12.8v5.4h11.8V15h-11.8v6.5h13.4V26h-18.4V0.8h17.8L118.1,5.2z"/>
		<path id="Tracé_57" class="st1" d="M125,3.4c1.9-2.1,4.6-3.2,7.5-3.1c4,0,7,1.4,8.9,4.2c1,1.4,1.5,3,1.7,4.7h-5.1
			c-0.2-1-0.6-1.9-1.2-2.7c-1-1.1-2.5-1.8-4-1.6c-1.7,0-3.4,0.8-4.3,2.3c-1.2,2-1.7,4.3-1.6,6.6c0,2.8,0.5,5,1.6,6.4
			c1,1.3,2.5,2.1,4.2,2.1c1.5,0.1,3-0.6,4-1.8c0.6-0.9,1-1.9,1.3-2.9h5c-0.3,2.5-1.5,4.9-3.3,6.7c-1.8,1.7-4.3,2.7-6.9,2.6
			c-3.1,0.1-6.1-1.1-8.1-3.5c-2-2.3-3-5.6-3-9.6C121.6,9.2,122.8,5.8,125,3.4z"/>
		<path id="Tracé_58" class="st1" d="M164.6,0.8v4.5h-7.2V26h-5.1V5.2H145V0.8H164.6z"/>
	</g>
</g>
</svg>
